<?xml version="1.0" encoding="UTF-8" standalone="no"?>
<!-- Created with Inkscape (http://www.inkscape.org/) -->

<svg
   xmlns:dc="http://purl.org/dc/elements/1.1/"
   xmlns:cc="http://creativecommons.org/ns#"
   xmlns:rdf="http://www.w3.org/1999/02/22-rdf-syntax-ns#"
   xmlns:svg="http://www.w3.org/2000/svg"
   xmlns="http://www.w3.org/2000/svg"
   xmlns:sodipodi="http://sodipodi.sourceforge.net/DTD/sodipodi-0.dtd"
   xmlns:inkscape="http://www.inkscape.org/namespaces/inkscape"
   width="361.5"
   height="338.11493"
   id="svg5720"
   version="1.1"
   inkscape:version="0.48.4 r9939"
   sodipodi:docname="compromission.svg">
  <defs
     id="defs5722">
    <marker
       inkscape:stockid="Arrow1Mend"
       orient="auto"
       refY="0"
       refX="0"
       id="Arrow1Mend"
       style="overflow:visible">
      <path
         id="path3887"
         d="M 0,0 5,-5 -12.5,0 5,5 0,0 z"
         style="fill-rule:evenodd;stroke:#000000;stroke-width:1pt"
         transform="matrix(-0.4,0,0,-0.4,-4,0)"
         inkscape:connector-curvature="0" />
    </marker>
    <marker
       inkscape:stockid="Arrow2Lstart"
       orient="auto"
       refY="0"
       refX="0"
       id="Arrow2Lstart"
       style="overflow:visible">
      <path
         id="path3896"
         style="fill-rule:evenodd;stroke-width:0.625;stroke-linejoin:round"
         d="M 8.7185878,4.0337352 -2.2072895,0.01601326 8.7185884,-4.0017078 c -1.7454984,2.3720609 -1.7354408,5.6174519 -6e-7,8.035443 z"
         transform="matrix(1.1,0,0,1.1,1.1,0)"
         inkscape:connector-curvature="0" />
    </marker>
    <marker
       inkscape:stockid="Arrow1Mstart"
       orient="auto"
       refY="0"
       refX="0"
       id="Arrow1Mstart"
       style="overflow:visible">
      <path
         id="path3884"
         d="M 0,0 5,-5 -12.5,0 5,5 0,0 z"
         style="fill-rule:evenodd;stroke:#000000;stroke-width:1pt"
         transform="matrix(0.4,0,0,0.4,4,0)"
         inkscape:connector-curvature="0" />
    </marker>
    <marker
       inkscape:stockid="Arrow1Lstart"
       orient="auto"
       refY="0"
       refX="0"
       id="Arrow1Lstart"
       style="overflow:visible">
      <path
         id="path3878"
         d="M 0,0 5,-5 -12.5,0 5,5 0,0 z"
         style="fill-rule:evenodd;stroke:#000000;stroke-width:1pt"
         transform="matrix(0.8,0,0,0.8,10,0)"
         inkscape:connector-curvature="0" />
    </marker>
    <marker
       inkscape:stockid="Arrow1Mend"
       orient="auto"
       refY="0"
       refX="0"
       id="Arrow1Mend-4"
       style="overflow:visible">
      <path
         inkscape:connector-curvature="0"
         id="path3887-5"
         d="M 0,0 5,-5 -12.5,0 5,5 0,0 z"
         style="fill-rule:evenodd;stroke:#000000;stroke-width:1pt"
         transform="matrix(-0.4,0,0,-0.4,-4,0)" />
    </marker>
  </defs>
  <sodipodi:namedview
     id="base"
     pagecolor="#ffffff"
     bordercolor="#666666"
     borderopacity="1.0"
     inkscape:pageopacity="0.0"
     inkscape:pageshadow="2"
     inkscape:zoom="2.1392041"
     inkscape:cx="172.56137"
     inkscape:cy="158.60892"
     inkscape:current-layer="layer1"
     inkscape:document-units="px"
     showgrid="true"
     inkscape:window-width="1600"
     inkscape:window-height="873"
     inkscape:window-x="0"
     inkscape:window-y="0"
     inkscape:window-maximized="1"
     fit-margin-top="0"
     fit-margin-left="0"
     fit-margin-right="0"
     fit-margin-bottom="0">
    <inkscape:grid
       type="xygrid"
       id="grid3832"
       empspacing="5"
       visible="true"
       enabled="true"
       snapvisiblegridlinesonly="true"
       originx="1.8693792e-06px"
       originy="16.500001px" />
  </sodipodi:namedview>
  <metadata
     id="metadata5725">
    <rdf:RDF>
      <cc:Work
         rdf:about="">
        <dc:format>image/svg+xml</dc:format>
        <dc:type
           rdf:resource="http://purl.org/dc/dcmitype/StillImage" />
        <dc:title />
      </cc:Work>
    </rdf:RDF>
  </metadata>
  <g
     id="layer1"
     inkscape:label="Layer 1"
     inkscape:groupmode="layer"
     transform="translate(-181.88697,-71.160327)">
    <path
       transform="matrix(0.54460966,0,0,0.54460966,-60.610694,140.46834)"
       sodipodi:type="arc"
       style="fill:#268bd2;fill-opacity:1;stroke:none"
       id="path5732-3-5"
       sodipodi:cx="503.14188"
       sodipodi:cy="165.64706"
       sodipodi:rx="57.873127"
       sodipodi:ry="57.873127"
       d="m 561.015,165.64706 c 0,31.96245 -25.91068,57.87313 -57.87312,57.87313 -31.96245,0 -57.87313,-25.91068 -57.87313,-57.87313 0,-31.96244 25.91068,-57.87312 57.87313,-57.87312 31.96244,0 57.87312,25.91068 57.87312,57.87312 z" />
    <g
       id="g3788"
       transform="matrix(0.54460966,0,0,0.54460966,82.829568,32.405725)">
      <path
         transform="translate(-3.5432765,-36.61361)"
         d="m 561.015,165.64706 c 0,31.96245 -25.91068,57.87313 -57.87312,57.87313 -31.96245,0 -57.87313,-25.91068 -57.87313,-57.87313 0,-31.96244 25.91068,-57.87312 57.87313,-57.87312 31.96244,0 57.87312,25.91068 57.87312,57.87312 z"
         sodipodi:ry="57.873127"
         sodipodi:rx="57.873127"
         sodipodi:cy="165.64706"
         sodipodi:cx="503.14188"
         id="path5732"
         style="fill:#859900;fill-opacity:1;stroke:none"
         sodipodi:type="arc" />
      <text
         sodipodi:linespacing="125%"
         id="text5788"
         y="143.33032"
         x="452.81149"
         style="font-size:40px;font-style:normal;font-weight:normal;line-height:125%;letter-spacing:0px;word-spacing:0px;fill:#000000;fill-opacity:1;stroke:none;font-family:Bitstream Vera Sans"
         xml:space="preserve"><tspan
           y="143.33032"
           x="452.81149"
           id="tspan5790"
           sodipodi:role="line">Root</tspan></text>
    </g>
    <g
       id="g3793"
       transform="matrix(0.54460966,0,0,0.54460966,82.829568,33.692193)">
      <path
         d="m 561.015,165.64706 c 0,31.96245 -25.91068,57.87313 -57.87312,57.87313 -31.96245,0 -57.87313,-25.91068 -57.87313,-57.87313 0,-31.96244 25.91068,-57.87312 57.87313,-57.87312 31.96244,0 57.87312,25.91068 57.87312,57.87312 z"
         sodipodi:ry="57.873127"
         sodipodi:rx="57.873127"
         sodipodi:cy="165.64706"
         sodipodi:cx="503.14188"
         id="path5732-3"
         style="fill:#d33682;fill-opacity:1;stroke:none"
         sodipodi:type="arc"
         transform="translate(-3.5432765,198.42214)" />
      <text
         sodipodi:linespacing="125%"
         id="text5792"
         y="378.64929"
         x="460.31149"
         style="font-size:40px;font-style:normal;font-weight:normal;line-height:125%;letter-spacing:0px;word-spacing:0px;fill:#000000;fill-opacity:1;stroke:none;font-family:Bitstream Vera Sans"
         xml:space="preserve"><tspan
           y="378.64929"
           x="460.31149"
           id="tspan5794"
           sodipodi:role="line">Int1</tspan></text>
    </g>
    <text
       xml:space="preserve"
       style="font-size:21.78438568px;font-style:normal;font-weight:normal;line-height:125%;letter-spacing:0px;word-spacing:0px;fill:#000000;fill-opacity:1;stroke:none;font-family:Bitstream Vera Sans"
       x="199.25284"
       y="238.61115"
       id="text5800"
       sodipodi:linespacing="125%"><tspan
         sodipodi:role="line"
         x="199.25284"
         y="238.61115"
         id="tspan5804">C1</tspan></text>
    <g
       id="g3862"
       transform="matrix(0.54460966,0,0,0.54460966,82.829568,32.405725)">
      <path
         d="m 561.015,165.64706 c 0,31.96245 -25.91068,57.87313 -57.87312,57.87313 -31.96245,0 -57.87313,-25.91068 -57.87313,-57.87313 0,-31.96244 25.91068,-57.87312 57.87313,-57.87312 31.96244,0 57.87312,25.91068 57.87312,57.87312 z"
         sodipodi:ry="57.873127"
         sodipodi:rx="57.873127"
         sodipodi:cy="165.64706"
         sodipodi:cx="503.14188"
         id="path5732-3-7"
         style="fill:#268bd2;fill-opacity:1;stroke:none"
         sodipodi:type="arc"
         transform="translate(256.29526,198.42214)" />
      <text
         sodipodi:linespacing="125%"
         id="text5808"
         y="378.62976"
         x="733.60706"
         style="font-size:40px;font-style:normal;font-weight:normal;line-height:125%;letter-spacing:0px;word-spacing:0px;fill:#000000;fill-opacity:1;stroke:none;font-family:Bitstream Vera Sans"
         xml:space="preserve"><tspan
           y="378.62976"
           x="733.60706"
           id="tspan5810"
           sodipodi:role="line">C2</tspan></text>
    </g>
    <g
       id="g3798"
       transform="matrix(0.54460966,0,0,0.54460966,82.829568,32.405725)">
      <path
         d="m 561.015,165.64706 c 0,31.96245 -25.91068,57.87313 -57.87312,57.87313 -31.96245,0 -57.87313,-25.91068 -57.87313,-57.87313 0,-31.96244 25.91068,-57.87312 57.87313,-57.87312 31.96244,0 57.87312,25.91068 57.87312,57.87312 z"
         sodipodi:ry="57.873127"
         sodipodi:rx="57.873127"
         sodipodi:cy="165.64706"
         sodipodi:cx="503.14188"
         id="path5732-3-2"
         style="fill:#d33682;fill-opacity:1;stroke:none"
         sodipodi:type="arc"
         transform="translate(-3.5432765,438.18224)" />
      <text
         sodipodi:linespacing="125%"
         id="text5792-3"
         y="618.40936"
         x="457.94934"
         style="font-size:40px;font-style:normal;font-weight:normal;line-height:125%;letter-spacing:0px;word-spacing:0px;fill:#000000;fill-opacity:1;stroke:none;font-family:Bitstream Vera Sans"
         xml:space="preserve"><tspan
           y="618.40936"
           x="457.94934"
           id="tspan5794-6"
           sodipodi:role="line">Int2</tspan><tspan
           id="tspan3786"
           y="668.40936"
           x="457.94934"
           sodipodi:role="line" /></text>
    </g>
    <g
       id="g3867"
       transform="matrix(0.54460966,0,0,0.54460966,85.402484,31.762503)">
      <path
         d="m 561.015,165.64706 c 0,31.96245 -25.91068,57.87313 -57.87312,57.87313 -31.96245,0 -57.87313,-25.91068 -57.87313,-57.87313 0,-31.96244 25.91068,-57.87312 57.87313,-57.87312 31.96244,0 57.87312,25.91068 57.87312,57.87312 z"
         sodipodi:ry="57.873127"
         sodipodi:rx="57.873127"
         sodipodi:cy="165.64706"
         sodipodi:cx="503.14188"
         id="path5732-3-7-1"
         style="fill:#268bd2;fill-opacity:1;stroke:none"
         sodipodi:type="arc"
         transform="translate(251.57093,439.36331)" />
      <text
         sodipodi:linespacing="125%"
         id="text5808-7"
         y="619.57092"
         x="728.88275"
         style="font-size:40px;font-style:normal;font-weight:normal;line-height:125%;letter-spacing:0px;word-spacing:0px;fill:#000000;fill-opacity:1;stroke:none;font-family:Bitstream Vera Sans"
         xml:space="preserve"><tspan
           id="tspan3828"
           y="619.57092"
           x="728.88275"
           sodipodi:role="line">C3</tspan></text>
    </g>
    <g
       id="g3840">
      <flowRoot
         style="font-size:40px;font-style:normal;font-weight:normal;line-height:125%;letter-spacing:0px;word-spacing:0px;fill:#000000;fill-opacity:1;stroke:none;font-family:Sans"
         id="flowRoot3832"
         xml:space="preserve"><flowRegion
           id="flowRegion3834"><rect
             y="516.42908"
             x="631.88007"
             height="178.34372"
             width="226.76816"
             id="rect3836" /></flowRegion><flowPara
           id="flowPara3838" /></flowRoot>    </g>
    <flowRoot
       xml:space="preserve"
       id="flowRoot3846"
       style="font-size:40px;font-style:normal;font-weight:normal;line-height:125%;letter-spacing:0px;word-spacing:0px;fill:#000000;fill-opacity:1;stroke:none;font-family:Sans"><flowRegion
         id="flowRegion3848"><rect
           id="rect3850"
           width="142.91119"
           height="193.69781"
           x="682.66669"
           y="280.21222" /></flowRegion><flowPara
         id="flowPara3852" /></flowRoot>    <path
       style="fill:none;stroke:#000000;stroke-width:2.17843866;stroke-linecap:butt;stroke-linejoin:miter;stroke-miterlimit:4;stroke-opacity:1;stroke-dasharray:none;marker-start:none;marker-end:url(#Arrow1Mend)"
       d="M 233.98859,206.2386 331.1163,125.19164"
       id="path3872"
       inkscape:connector-type="polyline"
       inkscape:connector-curvature="3" />
    <path
       style="fill:none;stroke:#000000;stroke-width:2.17843866;stroke-linecap:butt;stroke-linejoin:miter;stroke-miterlimit:4;stroke-opacity:1;stroke-dasharray:none;marker-end:url(#Arrow1Mend);display:inline"
       d="m 354.27257,200.69828 0,-63.67976"
       id="path5258"
       inkscape:connector-type="polyline"
       inkscape:connector-curvature="3" />
    <path
       style="fill:none;stroke:#000000;stroke-width:2.17843866;stroke-linecap:butt;stroke-linejoin:miter;stroke-miterlimit:4;stroke-opacity:1;stroke-dasharray:none;marker-end:url(#Arrow1Mend);display:inline"
       d="m 354.27257,329.86311 0,-63.67976"
       id="path5258-2-0"
       inkscape:connector-type="polyline"
       inkscape:connector-curvature="3" />
    <path
       style="fill:none;stroke:#000000;stroke-width:2.17843866;stroke-linecap:butt;stroke-linejoin:miter;stroke-miterlimit:4;stroke-opacity:1;stroke-dasharray:none;marker-end:url(#Arrow1Mend);display:inline"
       d="m 465.60284,230.0381 -77.18758,0.64324"
       id="path5672"
       inkscape:connector-type="polyline"
       inkscape:connector-curvature="3" />
    <path
       style="fill:none;stroke:#000000;stroke-width:2.17843866;stroke-linecap:butt;stroke-linejoin:miter;stroke-miterlimit:4;stroke-opacity:1;stroke-dasharray:none;marker-end:url(#Arrow1Mend);display:inline"
       d="m 464.7727,360.82696 -77.18758,0.64323"
       id="path5672-5"
       inkscape:connector-type="polyline"
       inkscape:connector-curvature="3" />
    <rect
       style="fill:none;stroke:#dc322f;stroke-width:3;stroke-linejoin:round;stroke-miterlimit:4;stroke-opacity:1;stroke-dasharray:none"
       id="rect3032"
       width="85.038063"
       height="85.038063"
       x="312.39676"
       y="189.44876" />
    <path
       style="fill:none;stroke:#b58900;stroke-width:3;stroke-linecap:butt;stroke-linejoin:round;stroke-miterlimit:4;stroke-opacity:1;stroke-dasharray:none"
       d="m 260,116.61493 0,115 -130,0 0,105 230,0 0,-220 z"
       id="path3834"
       inkscape:connector-curvature="0"
       transform="translate(181.88697,71.160327)" />
  </g>
</svg>
